<?xml version="1.0" encoding="UTF-8" standalone="no"?>
<!-- Generator: Adobe Illustrator 19.0.0, SVG Export Plug-In . SVG Version: 6.00 Build 0)  -->

<svg
   xmlns:dc="http://purl.org/dc/elements/1.1/"
   xmlns:cc="http://creativecommons.org/ns#"
   xmlns:rdf="http://www.w3.org/1999/02/22-rdf-syntax-ns#"
   xmlns:svg="http://www.w3.org/2000/svg"
   xmlns="http://www.w3.org/2000/svg"
   xmlns:sodipodi="http://sodipodi.sourceforge.net/DTD/sodipodi-0.dtd"
   xmlns:inkscape="http://www.inkscape.org/namespaces/inkscape"
   version="1.1"
   id="Capa_1"
   x="0px"
   y="0px"
   viewBox="0 0 500 500"
   xml:space="preserve"
   sodipodi:docname="antivirus.svg"
   width="500"
   height="500"
   inkscape:export-filename="C:\Users\danie\OneDrive\anthil.io-anotherServerRemake\nginx\app\client\obr\newIcons\icon6.png"
   inkscape:export-xdpi="96"
   inkscape:export-ydpi="96"
   inkscape:version="0.92.1 r15371"><metadata
   id="metadata45"><rdf:RDF><cc:Work
       rdf:about=""><dc:format>image/svg+xml</dc:format><dc:type
         rdf:resource="http://purl.org/dc/dcmitype/StillImage" /><dc:title></dc:title></cc:Work></rdf:RDF></metadata><defs
   id="defs43">
	

	
	
	
	
	
	
	
	
	

	
	
	
	
	
	
	
	

	
	

	
	
</defs><sodipodi:namedview
   pagecolor="#ffffff"
   bordercolor="#666666"
   borderopacity="1"
   objecttolerance="10"
   gridtolerance="10"
   guidetolerance="10"
   inkscape:pageopacity="0"
   inkscape:pageshadow="2"
   inkscape:window-width="1366"
   inkscape:window-height="705"
   id="namedview41"
   showgrid="false"
   inkscape:snap-global="false"
   inkscape:zoom="0.17982457"
   inkscape:cx="-904.91481"
   inkscape:cy="-89.215686"
   inkscape:window-x="-8"
   inkscape:window-y="-8"
   inkscape:window-maximized="1"
   inkscape:current-layer="Capa_1" />




<g
   id="g10"
   transform="translate(0,442)">
</g>
<g
   id="g12"
   transform="translate(0,442)">
</g>
<g
   id="g14"
   transform="translate(0,442)">
</g>
<g
   id="g16"
   transform="translate(0,442)">
</g>
<g
   id="g18"
   transform="translate(0,442)">
</g>
<g
   id="g20"
   transform="translate(0,442)">
</g>
<g
   id="g22"
   transform="translate(0,442)">
</g>
<g
   id="g24"
   transform="translate(0,442)">
</g>
<g
   id="g26"
   transform="translate(0,442)">
</g>
<g
   id="g28"
   transform="translate(0,442)">
</g>
<g
   id="g30"
   transform="translate(0,442)">
</g>
<g
   id="g32"
   transform="translate(0,442)">
</g>
<g
   id="g34"
   transform="translate(0,442)">
</g>
<g
   id="g36"
   transform="translate(0,442)">
</g>
<g
   id="g38"
   transform="translate(0,442)">
</g>
<g
   id="g4526"
   transform="matrix(4.5658034,0,0,4.5658034,-1255.8891,514.45151)">
</g><g
   id="g4528"
   transform="matrix(4.5658034,0,0,4.5658034,-1255.8891,514.45151)">
</g><g
   id="g4530"
   transform="matrix(4.5658034,0,0,4.5658034,-1255.8891,514.45151)">
</g><g
   id="g4532"
   transform="matrix(4.5658034,0,0,4.5658034,-1255.8891,514.45151)">
</g><g
   id="g4534"
   transform="matrix(4.5658034,0,0,4.5658034,-1255.8891,514.45151)">
</g><g
   id="g4536"
   transform="matrix(4.5658034,0,0,4.5658034,-1255.8891,514.45151)">
</g><g
   id="g4538"
   transform="matrix(4.5658034,0,0,4.5658034,-1255.8891,514.45151)">
</g><g
   id="g4540"
   transform="matrix(4.5658034,0,0,4.5658034,-1255.8891,514.45151)">
</g><g
   id="g4542"
   transform="matrix(4.5658034,0,0,4.5658034,-1255.8891,514.45151)">
</g><g
   id="g4544"
   transform="matrix(4.5658034,0,0,4.5658034,-1255.8891,514.45151)">
</g><g
   id="g4546"
   transform="matrix(4.5658034,0,0,4.5658034,-1255.8891,514.45151)">
</g><g
   id="g4548"
   transform="matrix(4.5658034,0,0,4.5658034,-1255.8891,514.45151)">
</g><g
   id="g4550"
   transform="matrix(4.5658034,0,0,4.5658034,-1255.8891,514.45151)">
</g><g
   id="g4552"
   transform="matrix(4.5658034,0,0,4.5658034,-1255.8891,514.45151)">
</g><g
   id="g4554"
   transform="matrix(4.5658034,0,0,4.5658034,-1255.8891,514.45151)">
</g><rect
   style="opacity:1;fill:#3498db;fill-opacity:1;fill-rule:nonzero;stroke-width:2.25861716"
   id="rect4959"
   width="4198.5366"
   height="784.09753"
   x="-2535.8047"
   y="1228.4878" /><g
   id="g5531"><path
     inkscape:connector-curvature="0"
     id="path2"
     d="m 382.45834,1448.4489 c 0,0 -46.13831,55.3632 -152.2488,55.3632 v 132.0758 c 0,68.9687 29.95149,135.4807 84.17975,178.0965 19.19026,15.0865 41.82688,28.0622 68.06905,35.8477 26.24214,-7.7855 48.87187,-20.7612 68.06905,-35.8477 54.22826,-42.6158 84.17969,-109.1278 84.17969,-178.0965 v -132.0758 c -106.11043,0 -152.24874,-55.3632 -152.24874,-55.3632 z"
     style="fill:#ecf0f1;fill-opacity:1;stroke-width:6.92040014" /><path
     inkscape:connector-curvature="0"
     id="path4"
     d="m 230.20954,1503.8121 v 132.0758 c 0,68.9687 29.95149,135.4807 84.17975,178.0965 19.19026,15.0865 41.82688,28.0622 68.06905,35.8477 v -401.3832 c 0,0 -46.13831,55.3632 -152.2488,55.3632 z"
     style="fill:#bdc3c7;fill-opacity:1;stroke-width:6.92040014" /><path
     inkscape:connector-curvature="0"
     id="path6"
     d="m 382.45834,1805.9637 c -14.69202,-5.7647 -28.91344,-14.0138 -42.40822,-24.6228 -42.78191,-33.6193 -68.3182,-87.9929 -68.3182,-145.453 v -93.1278 c 51.14869,-6.5259 87.46694,-24.3183 110.72642,-40.1245 23.25945,15.8062 59.57773,33.5986 110.72631,40.1245 v 93.1278 c 0,57.4601 -25.53621,111.8337 -68.31118,145.453 -13.50172,10.609 -27.72314,18.8581 -42.41513,24.6228 z"
     style="fill:#bdc3c7;fill-opacity:1;stroke-width:6.92040014" /><path
     inkscape:connector-curvature="0"
     id="path8"
     d="m 271.73192,1542.7601 v 93.1278 c 0,57.4601 25.53629,111.8337 68.3182,145.453 13.49478,10.609 27.7162,18.8581 42.40822,24.6228 v -303.3212 c -23.25948,15.7993 -59.57773,33.5986 -110.72642,40.1176 z"
     style="fill:#ecf0f1;fill-opacity:1;stroke-width:6.92040014" /></g><g
   id="g5501"><path
     inkscape:connector-curvature="0"
     id="path5239"
     d="m -1575.5318,1630.7457 v 150.3885 h -106.0591 v -27.2853 h -96.27 v 27.2853 h -104.7349 v -150.3885 z"
     style="fill:#ecf0f1;fill-opacity:1;stroke-width:4.56580353" /><path
     inkscape:connector-curvature="0"
     id="path5237"
     d="m -1723.7222,1482.4885 c 1.2374,-0.21 3.2489,0.7179 5.1392,0.042 2.6116,-0.9451 5.447,-2.0318 8.7115,-3.2143 3.2143,-1.146 6.3373,-2.082 9.3645,-2.744 2.9769,-0.7169 5.1045,-1.041 6.5519,-1.041 2.7167,0 6.2643,0.4611 10.3735,1.3834 4.164,1.041 8.5837,2.1779 13.0993,3.4654 4.6617,1.4794 8.8622,2.566 12.9075,3.534 3.881,0.9086 7.2825,1.3012 9.9535,1.3012 4.2827,0 8.8211,-0.6027 13.9257,-1.9633 v -54.8033 c -4.2051,1.7898 -8.7709,2.776 -13.9257,2.776 -2.671,0 -6.0725,-0.4383 -9.9535,-1.4519 -4.0453,-0.7899 -8.2504,-2.0546 -12.9075,-3.4381 -4.5156,-1.4199 -8.7937,-2.4838 -12.7203,-3.3832 -3.9449,-0.968 -7.2323,-1.452 -10.022,-1.452 -9.3142,0 -20.0324,0.8084 -30.5976,5.0135"
     style="fill:#bdc3c7;fill-opacity:1;stroke-width:4.56580353" /><path
     inkscape:connector-curvature="0"
     id="path4522"
     d="m -1723.0849,1417.9884 h -13.0034 v 116.0125 h -0.7443 c -19.6831,1.9131 -36.919,9.0769 -51.3744,21.5278 -14.6243,12.7523 -24.1394,28.5819 -28.623,47.5665 0,0 -14.0079,-2.3514 -14.0079,13.3002 h 204.4704 c 0.01,-13.9028 -15.3411,-13.3002 -15.3411,-13.3002 -4.1868,-18.9846 -13.6381,-34.8142 -28.5865,-47.5665 -14.4416,-12.4509 -31.5588,-19.6147 -51.3836,-21.5278 h -1.4291"
     style="fill:#ecf0f1;fill-opacity:1;stroke-width:4.56580353" /></g><g
   id="g5556"><path
     id="path4582"
     d="m 683.34878,1858.0527 h 105.2927 v -60.1674 h -105.2927 z"
     style="fill:#ecf0f1;fill-opacity:1;stroke-width:0.82259941"
     inkscape:connector-curvature="0" /><path
     id="path4584"
     d="m 788.64148,1858.0527 h 105.2928 v -60.1674 h -105.2928 z"
     style="fill:#e0e3e5;fill-opacity:1;stroke-width:0.82259941"
     inkscape:connector-curvature="0" /><path
     id="path4586"
     d="m 893.93428,1858.0527 h 105.2927 v -60.1674 h -105.2927 z"
     style="fill:#bdc3c7;fill-opacity:1;stroke-width:0.82259941"
     inkscape:connector-curvature="0" /><path
     id="path4588"
     d="m 999.22698,1858.0527 h 105.29272 v -60.1674 H 999.22698 Z"
     style="fill:#ecf0f1;fill-opacity:1;stroke-width:0.82259941"
     inkscape:connector-curvature="0" /><path
     id="path4590"
     d="m 683.34878,1797.8853 h 52.6464 v -60.1673 h -52.6464 z"
     style="fill:#e0e3e5;fill-opacity:1;stroke-width:0.82259941"
     inkscape:connector-curvature="0" /><path
     inkscape:connector-curvature="0"
     style="fill:#bdc3c7;fill-opacity:1;stroke-width:0.82259941"
     d="m 1051.8733,1797.8853 h 52.6464 v -60.1673 h -52.6464 z"
     id="path4592" /><path
     inkscape:connector-curvature="0"
     style="fill:#bdc3c7;fill-opacity:1;stroke-width:0.82259941"
     d="m 735.99518,1797.8853 h 105.2927 v -60.1673 h -105.2927 z"
     id="path4594" /><path
     id="path4598"
     d="m 841.28788,1797.8853 h 105.2927 v -60.1673 h -105.2927 z"
     style="fill:#ecf0f1;fill-opacity:1;stroke-width:0.82259941"
     inkscape:connector-curvature="0" /><path
     id="path4600"
     d="M 946.58058,1797.8853 H 1051.8733 V 1737.718 H 946.58058 Z"
     style="fill:#e0e3e5;fill-opacity:1;stroke-width:0.82259941"
     inkscape:connector-curvature="0" /><path
     id="path4602"
     d="m 683.34878,1737.718 h 105.2927 v -60.1674 h -105.2927 z"
     style="fill:#ecf0f1;fill-opacity:1;stroke-width:0.82259941"
     inkscape:connector-curvature="0" /><path
     id="path4604"
     d="m 788.64148,1737.718 h 105.2928 v -60.1674 h -105.2928 z"
     style="fill:#e0e3e5;fill-opacity:1;stroke-width:0.82259941"
     inkscape:connector-curvature="0" /><path
     id="path4606"
     d="m 893.93428,1737.718 h 105.2927 v -60.1674 h -105.2927 z"
     style="fill:#bdc3c7;fill-opacity:1;stroke-width:0.82259941"
     inkscape:connector-curvature="0" /><path
     id="path4608"
     d="m 999.22698,1737.718 h 105.29272 v -60.1674 H 999.22698 Z"
     style="fill:#ecf0f1;fill-opacity:1;stroke-width:0.82259941"
     inkscape:connector-curvature="0" /><path
     id="path4610"
     d="m 683.34878,1677.5506 h 52.6464 v -60.1674 h -52.6464 z"
     style="fill:#e0e3e5;fill-opacity:1;stroke-width:0.82259941"
     inkscape:connector-curvature="0" /><path
     inkscape:connector-curvature="0"
     style="fill:#bdc3c7;fill-opacity:1;stroke-width:0.82259941"
     d="m 1051.8733,1677.5506 h 52.6464 v -60.1674 h -52.6464 z"
     id="path4612" /><path
     inkscape:connector-curvature="0"
     style="fill:#bdc3c7;fill-opacity:1;stroke-width:0.82259941"
     d="m 735.99518,1677.5506 h 105.2927 v -60.1674 h -105.2927 z"
     id="path4614" /><path
     id="path4618"
     d="m 841.28788,1677.5506 h 105.2927 v -60.1674 h -105.2927 z"
     style="fill:#ecf0f1;fill-opacity:1;stroke-width:0.82259941"
     inkscape:connector-curvature="0" /><path
     id="path4620"
     d="m 946.58058,1677.5506 h 105.29272 v -60.1674 H 946.58058 Z"
     style="fill:#e0e3e5;fill-opacity:1;stroke-width:0.82259941"
     inkscape:connector-curvature="0" /><path
     id="path4622"
     d="m 683.34878,1617.3832 h 105.2927 v -60.1674 h -105.2927 z"
     style="fill:#ecf0f1;fill-opacity:1;stroke-width:0.82259941"
     inkscape:connector-curvature="0" /><path
     id="path4624"
     d="m 788.64148,1617.3832 h 105.2928 v -60.1674 h -105.2928 z"
     style="fill:#e0e3e5;fill-opacity:1;stroke-width:0.82259941"
     inkscape:connector-curvature="0" /><path
     id="path4626"
     d="m 893.93428,1617.3832 h 105.2927 v -60.1674 h -105.2927 z"
     style="fill:#bdc3c7;fill-opacity:1;stroke-width:0.82259941"
     inkscape:connector-curvature="0" /><path
     id="path4628"
     d="m 683.34878,1557.2158 h 52.6464 v -60.1674 h -52.6464 z"
     style="fill:#e0e3e5;fill-opacity:1;stroke-width:0.82259941"
     inkscape:connector-curvature="0" /><path
     id="path4630"
     d="m 735.99518,1557.2158 h 105.2927 v -60.1674 h -105.2927 z"
     style="fill:#bdc3c7;fill-opacity:1;stroke-width:0.82259941"
     inkscape:connector-curvature="0" /></g><g
   id="g4632"
   transform="matrix(0.82259944,0,0,0.82259944,1039.2512,-167.96165)">
</g><g
   id="g4634"
   transform="matrix(0.82259944,0,0,0.82259944,1039.2512,-167.96165)">
</g><g
   id="g4636"
   transform="matrix(0.82259944,0,0,0.82259944,1039.2512,-167.96165)">
</g><g
   id="g4638"
   transform="matrix(0.82259944,0,0,0.82259944,1039.2512,-167.96165)">
</g><g
   id="g4640"
   transform="matrix(0.82259944,0,0,0.82259944,1039.2512,-167.96165)">
</g><g
   id="g4642"
   transform="matrix(0.82259944,0,0,0.82259944,1039.2512,-167.96165)">
</g><g
   id="g4644"
   transform="matrix(0.82259944,0,0,0.82259944,1039.2512,-167.96165)">
</g><g
   id="g4646"
   transform="matrix(0.82259944,0,0,0.82259944,1039.2512,-167.96165)">
</g><g
   id="g4648"
   transform="matrix(0.82259944,0,0,0.82259944,1039.2512,-167.96165)">
</g><g
   id="g4650"
   transform="matrix(0.82259944,0,0,0.82259944,1039.2512,-167.96165)">
</g><g
   id="g4652"
   transform="matrix(0.82259944,0,0,0.82259944,1039.2512,-167.96165)">
</g><g
   id="g4654"
   transform="matrix(0.82259944,0,0,0.82259944,1039.2512,-167.96165)">
</g><g
   id="g4656"
   transform="matrix(0.82259944,0,0,0.82259944,1039.2512,-167.96165)">
</g><g
   id="g4658"
   transform="matrix(0.82259944,0,0,0.82259944,1039.2512,-167.96165)">
</g><g
   id="g4660"
   transform="matrix(0.82259944,0,0,0.82259944,1039.2512,-167.96165)">
</g><g
   id="g5525"><rect
     x="-347.88925"
     y="1747.2944"
     style="fill:#ecf0f1;fill-opacity:1;stroke-width:7.09177637"
     width="70.917763"
     height="99.284866"
     id="rect4711" /><rect
     x="-241.5126"
     y="1683.4685"
     style="fill:#ecf0f1;fill-opacity:1;stroke-width:7.09177637"
     width="70.917763"
     height="163.11086"
     id="rect4713" /><rect
     x="-135.13596"
     y="1626.7343"
     style="fill:#ecf0f1;fill-opacity:1;stroke-width:7.09177637"
     width="70.917763"
     height="219.84506"
     id="rect4715" /><rect
     x="-28.759325"
     y="1570.0001"
     style="fill:#ecf0f1;fill-opacity:1;stroke-width:7.09177637"
     width="70.917763"
     height="276.57928"
     id="rect4717" /><path
     inkscape:connector-curvature="0"
     style="fill:#bdc3c7;fill-opacity:1;stroke-width:7.09177637"
     d="M 49.250218,1853.6711 H -362.0728 c -3.91466,0 -7.09178,-3.17 -7.09178,-7.0917 0,-3.9218 3.17712,-7.0918 7.09178,-7.0918 H 49.250218 c 3.91467,0 7.09178,3.17 7.09178,7.0918 0,3.9217 -3.17711,7.0917 -7.09178,7.0917 z"
     id="path4719" /><path
     inkscape:connector-curvature="0"
     style="fill:#bdc3c7;fill-opacity:1;stroke-width:7.09177637"
     d="m -312.21762,1643.2581 c -2.45375,0 -4.83659,-1.2694 -6.14857,-3.5458 -1.95733,-3.397 -0.79427,-7.7301 2.59559,-9.6874 l 276.373618,-159.565 c 3.38987,-1.9644 7.72295,-0.7943 9.68737,2.5956 1.95733,3.397 0.79428,7.73 -2.59559,9.6874 l -276.373618,159.5649 c -1.11341,0.6454 -2.34029,0.9503 -3.5388,0.9503 z"
     id="path4721" /><path
     inkscape:connector-curvature="0"
     style="fill:#bdc3c7;fill-opacity:1;stroke-width:7.09177637"
     d="m -35.844002,1483.6932 c -0.22694,0 -0.45387,-0.014 -0.69499,-0.035 l -60.71979,-5.8862 c -3.893388,-0.3759 -6.751368,-3.8437 -6.368418,-7.7442 0.37587,-3.8934 3.808288,-6.7656 7.744218,-6.3684 l 60.71979,5.8861 c 3.89339,0.3759 6.75137,3.8438 6.36842,7.7443 -0.35459,3.6593 -3.43951,6.4038 -7.04923,6.4038 z"
     id="path4723" /><path
     inkscape:connector-curvature="0"
     style="fill:#bdc3c7;fill-opacity:1;stroke-width:7.09177637"
     d="m -61.119092,1539.2218 c -0.98576,0 -1.97861,-0.1986 -2.936,-0.6383 -3.56716,-1.624 -5.14153,-5.8223 -3.51752,-9.3895 l 25.26091,-55.5286 c 1.62402,-3.5672 5.82944,-5.1557 9.38951,-3.5175 3.56717,1.624 5.14154,5.8223 3.51752,9.3895 l -25.2609,55.5286 c -1.17724,2.6098 -3.75864,4.1558 -6.45352,4.1558 z"
     id="path4725" /></g><g
   id="g4729"
   transform="matrix(7.0917763,0,0,7.0917763,-13.262157,-189.03275)">
</g><g
   id="g4731"
   transform="matrix(7.0917763,0,0,7.0917763,-13.262157,-189.03275)">
</g><g
   id="g4733"
   transform="matrix(7.0917763,0,0,7.0917763,-13.262157,-189.03275)">
</g><g
   id="g4735"
   transform="matrix(7.0917763,0,0,7.0917763,-13.262157,-189.03275)">
</g><g
   id="g4737"
   transform="matrix(7.0917763,0,0,7.0917763,-13.262157,-189.03275)">
</g><g
   id="g4739"
   transform="matrix(7.0917763,0,0,7.0917763,-13.262157,-189.03275)">
</g><g
   id="g4741"
   transform="matrix(7.0917763,0,0,7.0917763,-13.262157,-189.03275)">
</g><g
   id="g4743"
   transform="matrix(7.0917763,0,0,7.0917763,-13.262157,-189.03275)">
</g><g
   id="g4745"
   transform="matrix(7.0917763,0,0,7.0917763,-13.262157,-189.03275)">
</g><g
   id="g4747"
   transform="matrix(7.0917763,0,0,7.0917763,-13.262157,-189.03275)">
</g><g
   id="g4749"
   transform="matrix(7.0917763,0,0,7.0917763,-13.262157,-189.03275)">
</g><g
   id="g4751"
   transform="matrix(7.0917763,0,0,7.0917763,-13.262157,-189.03275)">
</g><g
   id="g4753"
   transform="matrix(7.0917763,0,0,7.0917763,-13.262157,-189.03275)">
</g><g
   id="g4755"
   transform="matrix(7.0917763,0,0,7.0917763,-13.262157,-189.03275)">
</g><g
   id="g4757"
   transform="matrix(7.0917763,0,0,7.0917763,-13.262157,-189.03275)">
</g><g
   id="g5510"><rect
     id="XMLID_1334_"
     x="-1258.7585"
     y="1757.0121"
     style="fill:#bdc3c7;fill-opacity:1;stroke-width:1.0154928"
     width="30.464783"
     height="30.464783" /><path
     inkscape:connector-curvature="0"
     id="XMLID_1327_"
     style="fill:#ecf0f1;fill-opacity:1;stroke-width:0.95756596"
     d="m -1190.3881,1670.8022 -93.7955,51.1618 12.4023,111.6244 h 186.7254 v -162.7862 l -105.3322,57.454 z m 38.3026,86.1809 h 28.727 v 28.727 h -28.727 z m -76.6053,28.727 h -28.727 v -28.727 h 28.727 z" /><polygon
     transform="matrix(1.0039074,0,0,1.0039074,-1438.3444,1456.057)"
     id="XMLID_1336_"
     style="fill:#bdc3c7;fill-opacity:1"
     points="76.685,298.37 76.685,328.37 92.185,328.37 106.685,328.37 106.685,298.37 92.185,298.37 " /><polygon
     transform="matrix(0.95756596,0,0,0.95756596,-1434.2395,1471.2742)"
     id="XMLID_1331_"
     style="fill:#ecf0f1;fill-opacity:1"
     points="76.685,328.37 76.685,298.37 92.185,298.37 92.185,138.372 38.351,138.372 11.685,378.37 92.185,378.37 92.185,328.37 " /><polygon
     transform="matrix(0.95756596,0,0,0.95756596,-1434.7907,1471.2742)"
     id="XMLID_1332_"
     style="fill:#ecf0f1;fill-opacity:1"
     points="106.685,328.37 92.185,328.37 92.185,378.37 171.685,378.37 158.733,261.799 145.019,138.372 92.185,138.372 92.185,298.37 106.685,298.37 " /><rect
     id="XMLID_1335_"
     x="-1152.4331"
     y="1756.288"
     style="fill:#bdc3c7;fill-opacity:1;stroke-width:0.98073667"
     width="29.4221"
     height="29.4221" /><polygon
     transform="matrix(0.95756596,0,0,0.95756596,-1434.7907,1472.3169)"
     id="XMLID_1337_"
     style="fill:#ecf0f1;fill-opacity:1"
     points="156.685,108.372 26.685,108.372 26.685,138.372 38.351,138.372 92.185,138.372 145.019,138.372 156.685,138.372 " /></g><g
   id="g4871"
   transform="matrix(0.95756596,0,0,0.95756596,-1078.8883,-163.65258)">
</g><g
   id="g4873"
   transform="matrix(0.95756596,0,0,0.95756596,-1078.8883,-163.65258)">
</g><g
   id="g4875"
   transform="matrix(0.95756596,0,0,0.95756596,-1078.8883,-163.65258)">
</g><g
   id="g4877"
   transform="matrix(0.95756596,0,0,0.95756596,-1078.8883,-163.65258)">
</g><g
   id="g4879"
   transform="matrix(0.95756596,0,0,0.95756596,-1078.8883,-163.65258)">
</g><g
   id="g4881"
   transform="matrix(0.95756596,0,0,0.95756596,-1078.8883,-163.65258)">
</g><g
   id="g4883"
   transform="matrix(0.95756596,0,0,0.95756596,-1078.8883,-163.65258)">
</g><g
   id="g4885"
   transform="matrix(0.95756596,0,0,0.95756596,-1078.8883,-163.65258)">
</g><g
   id="g4887"
   transform="matrix(0.95756596,0,0,0.95756596,-1078.8883,-163.65258)">
</g><g
   id="g4889"
   transform="matrix(0.95756596,0,0,0.95756596,-1078.8883,-163.65258)">
</g><g
   id="g4891"
   transform="matrix(0.95756596,0,0,0.95756596,-1078.8883,-163.65258)">
</g><g
   id="g4893"
   transform="matrix(0.95756596,0,0,0.95756596,-1078.8883,-163.65258)">
</g><g
   id="g4895"
   transform="matrix(0.95756596,0,0,0.95756596,-1078.8883,-163.65258)">
</g><g
   id="g4897"
   transform="matrix(0.95756596,0,0,0.95756596,-1078.8883,-163.65258)">
</g><g
   id="g4899"
   transform="matrix(0.95756596,0,0,0.95756596,-1078.8883,-163.65258)">
</g><rect
   y="2360.9624"
   x="-2472.8894"
   height="784.09753"
   width="4198.5366"
   id="rect4961"
   style="opacity:1;fill:#e74c3c;fill-opacity:1;fill-rule:nonzero;stroke-width:2.25861716" /><g
   id="g5515"><polygon
     transform="matrix(6.7195084,0,0,6.7195084,-897.84263,1446.5266)"
     id="polygon5241"
     points="52,27.682 52,23.039 29,1.682 6,23.039 6,27.682 6,57.682 52,57.682 "
     style="fill:#ecf0f1;fill-opacity:1" /><path
     id="path5243"
     d="m -655.94033,1834.1213 h -94.07312 v -114.2317 c 0,-25.9776 21.05894,-47.0365 47.03656,-47.0365 v 0 c 25.97762,0 47.03656,21.0589 47.03656,47.0365 z"
     style="fill:#bdc3c7;fill-opacity:1;stroke-width:6.71950817"
     inkscape:connector-curvature="0" /><polyline
     transform="matrix(6.7195084,0,0,6.7195084,-897.84263,1446.5266)"
     id="polyline5245"
     points="1,27.682 29,1.682   57,27.682 "
     style="fill:none;stroke:#bdc3c7;stroke-width:2;stroke-linecap:round;stroke-miterlimit:10;stroke-opacity:1" /></g><g
   id="g5247"
   transform="matrix(6.7195084,0,0,6.7195084,-541.94021,-188.40018)">
</g><g
   id="g5249"
   transform="matrix(6.7195084,0,0,6.7195084,-541.94021,-188.40018)">
</g><g
   id="g5251"
   transform="matrix(6.7195084,0,0,6.7195084,-541.94021,-188.40018)">
</g><g
   id="g5253"
   transform="matrix(6.7195084,0,0,6.7195084,-541.94021,-188.40018)">
</g><g
   id="g5255"
   transform="matrix(6.7195084,0,0,6.7195084,-541.94021,-188.40018)">
</g><g
   id="g5257"
   transform="matrix(6.7195084,0,0,6.7195084,-541.94021,-188.40018)">
</g><g
   id="g5259"
   transform="matrix(6.7195084,0,0,6.7195084,-541.94021,-188.40018)">
</g><g
   id="g5261"
   transform="matrix(6.7195084,0,0,6.7195084,-541.94021,-188.40018)">
</g><g
   id="g5263"
   transform="matrix(6.7195084,0,0,6.7195084,-541.94021,-188.40018)">
</g><g
   id="g5265"
   transform="matrix(6.7195084,0,0,6.7195084,-541.94021,-188.40018)">
</g><g
   id="g5267"
   transform="matrix(6.7195084,0,0,6.7195084,-541.94021,-188.40018)">
</g><g
   id="g5269"
   transform="matrix(6.7195084,0,0,6.7195084,-541.94021,-188.40018)">
</g><g
   id="g5271"
   transform="matrix(6.7195084,0,0,6.7195084,-541.94021,-188.40018)">
</g><g
   id="g5273"
   transform="matrix(6.7195084,0,0,6.7195084,-541.94021,-188.40018)">
</g><g
   id="g5275"
   transform="matrix(6.7195084,0,0,6.7195084,-541.94021,-188.40018)">
</g><path
   inkscape:connector-curvature="0"
   id="path5402"
   d="m 374.59393,2494.415 c 0,0 -46.13831,55.3632 -152.2488,55.3632 v 132.0758 c 0,68.9687 29.95149,135.4807 84.17975,178.0965 19.19026,15.0865 41.82688,28.0622 68.06905,35.8477 26.24214,-7.7855 48.87187,-20.7612 68.06905,-35.8477 54.22826,-42.6158 84.17969,-109.1278 84.17969,-178.0965 v -132.0758 c -106.11043,0 -152.24874,-55.3632 -152.24874,-55.3632 z"
   style="fill:#ecf0f1;fill-opacity:1;stroke-width:6.92040014" /><path
   inkscape:connector-curvature="0"
   id="path5404"
   d="m 222.34513,2549.7782 v 132.0758 c 0,68.9687 29.95149,135.4807 84.17975,178.0965 19.19026,15.0865 41.82688,28.0622 68.06905,35.8477 V 2494.415 c 0,0 -46.13831,55.3632 -152.2488,55.3632 z"
   style="fill:#bdc3c7;fill-opacity:1;stroke-width:6.92040014" /><path
   inkscape:connector-curvature="0"
   id="path5406"
   d="m 374.59393,2851.9298 c -14.69202,-5.7647 -28.91344,-14.0138 -42.40822,-24.6228 -42.78191,-33.6193 -68.3182,-87.9929 -68.3182,-145.453 v -93.1278 c 51.14869,-6.5259 87.46694,-24.3183 110.72642,-40.1245 23.25945,15.8062 59.57773,33.5986 110.72631,40.1245 v 93.1278 c 0,57.4601 -25.53621,111.8337 -68.31118,145.453 -13.50172,10.609 -27.72314,18.8581 -42.41513,24.6228 z"
   style="fill:#bdc3c7;fill-opacity:1;stroke-width:6.92040014" /><path
   inkscape:connector-curvature="0"
   id="path5408"
   d="m 263.86751,2588.7262 v 93.1278 c 0,57.4601 25.53629,111.8337 68.3182,145.453 13.49478,10.609 27.7162,18.8581 42.40822,24.6228 v -303.3212 c -23.25948,15.7993 -59.57773,33.5986 -110.72642,40.1176 z"
   style="fill:#ecf0f1;fill-opacity:1;stroke-width:6.92040014" /><path
   id="path5410"
   d="m -1583.3962,2676.7118 v 150.3885 h -106.0591 v -27.2853 h -96.27 v 27.2853 h -104.7349 v -150.3885 z"
   style="fill:#ecf0f1;fill-opacity:1;stroke-width:4.56580353"
   inkscape:connector-curvature="0" /><path
   id="path5412"
   d="m -1731.5866,2528.4546 c 1.2374,-0.21 3.2489,0.7179 5.1392,0.042 2.6116,-0.9451 5.447,-2.0318 8.7115,-3.2143 3.2143,-1.146 6.3373,-2.082 9.3645,-2.744 2.9769,-0.7169 5.1045,-1.041 6.5519,-1.041 2.7167,0 6.2643,0.4611 10.3735,1.3834 4.164,1.041 8.5837,2.1779 13.0993,3.4654 4.6617,1.4794 8.8622,2.566 12.9075,3.534 3.881,0.9086 7.2825,1.3012 9.9535,1.3012 4.2827,0 8.8211,-0.6027 13.9257,-1.9633 v -54.8033 c -4.2051,1.7898 -8.7709,2.776 -13.9257,2.776 -2.671,0 -6.0725,-0.4383 -9.9535,-1.4519 -4.0453,-0.7899 -8.2504,-2.0546 -12.9075,-3.4381 -4.5156,-1.4199 -8.7937,-2.4838 -12.7203,-3.3832 -3.9449,-0.968 -7.2323,-1.452 -10.022,-1.452 -9.3142,0 -20.0324,0.8084 -30.5976,5.0135"
   style="fill:#bdc3c7;fill-opacity:1;stroke-width:4.56580353"
   inkscape:connector-curvature="0" /><path
   id="path5414"
   d="m -1730.9493,2463.9545 h -13.0034 v 116.0125 h -0.7443 c -19.6831,1.9131 -36.919,9.0769 -51.3744,21.5278 -14.6243,12.7523 -24.1394,28.5819 -28.623,47.5665 0,0 -14.0079,-2.3514 -14.0079,13.3002 h 204.4704 c 0.01,-13.9028 -15.3411,-13.3002 -15.3411,-13.3002 -4.1868,-18.9846 -13.6381,-34.8142 -28.5865,-47.5665 -14.4416,-12.4509 -31.5588,-19.6147 -51.3836,-21.5278 h -1.4291"
   style="fill:#ecf0f1;fill-opacity:1;stroke-width:4.56580353"
   inkscape:connector-curvature="0" /><path
   id="path5416"
   d="m 675.48438,2904.0188 h 105.2927 v -60.1674 h -105.2927 z"
   style="fill:#ecf0f1;fill-opacity:1;stroke-width:0.82259941"
   inkscape:connector-curvature="0" /><path
   id="path5418"
   d="m 780.77708,2904.0188 h 105.2928 v -60.1674 h -105.2928 z"
   style="fill:#e0e3e5;fill-opacity:1;stroke-width:0.82259941"
   inkscape:connector-curvature="0" /><path
   id="path5420"
   d="m 886.06988,2904.0188 h 105.2927 v -60.1674 h -105.2927 z"
   style="fill:#bdc3c7;fill-opacity:1;stroke-width:0.82259941"
   inkscape:connector-curvature="0" /><path
   id="path5422"
   d="m 991.36258,2904.0188 h 105.29272 v -60.1674 H 991.36258 Z"
   style="fill:#ecf0f1;fill-opacity:1;stroke-width:0.82259941"
   inkscape:connector-curvature="0" /><path
   id="path5424"
   d="m 675.48438,2843.8514 h 52.6464 v -60.1673 h -52.6464 z"
   style="fill:#e0e3e5;fill-opacity:1;stroke-width:0.82259941"
   inkscape:connector-curvature="0" /><path
   inkscape:connector-curvature="0"
   style="fill:#bdc3c7;fill-opacity:1;stroke-width:0.82259941"
   d="m 1044.0089,2843.8514 h 52.6464 v -60.1673 h -52.6464 z"
   id="path5426" /><path
   inkscape:connector-curvature="0"
   style="fill:#bdc3c7;fill-opacity:1;stroke-width:0.82259941"
   d="m 728.13078,2843.8514 h 105.2927 v -60.1673 h -105.2927 z"
   id="path5428" /><path
   id="path5430"
   d="m 833.42348,2843.8514 h 105.2927 v -60.1673 h -105.2927 z"
   style="fill:#ecf0f1;fill-opacity:1;stroke-width:0.82259941"
   inkscape:connector-curvature="0" /><path
   id="path5432"
   d="m 938.71618,2843.8514 h 105.29272 v -60.1673 H 938.71618 Z"
   style="fill:#e0e3e5;fill-opacity:1;stroke-width:0.82259941"
   inkscape:connector-curvature="0" /><path
   id="path5434"
   d="m 675.48438,2783.6841 h 105.2927 v -60.1674 h -105.2927 z"
   style="fill:#ecf0f1;fill-opacity:1;stroke-width:0.82259941"
   inkscape:connector-curvature="0" /><path
   id="path5436"
   d="m 780.77708,2783.6841 h 105.2928 v -60.1674 h -105.2928 z"
   style="fill:#e0e3e5;fill-opacity:1;stroke-width:0.82259941"
   inkscape:connector-curvature="0" /><path
   id="path5438"
   d="m 886.06988,2783.6841 h 105.2927 v -60.1674 h -105.2927 z"
   style="fill:#bdc3c7;fill-opacity:1;stroke-width:0.82259941"
   inkscape:connector-curvature="0" /><path
   id="path5440"
   d="m 991.36258,2783.6841 h 105.29272 v -60.1674 H 991.36258 Z"
   style="fill:#ecf0f1;fill-opacity:1;stroke-width:0.82259941"
   inkscape:connector-curvature="0" /><path
   id="path5442"
   d="m 675.48438,2723.5167 h 52.6464 v -60.1674 h -52.6464 z"
   style="fill:#e0e3e5;fill-opacity:1;stroke-width:0.82259941"
   inkscape:connector-curvature="0" /><path
   inkscape:connector-curvature="0"
   style="fill:#bdc3c7;fill-opacity:1;stroke-width:0.82259941"
   d="m 1044.0089,2723.5167 h 52.6464 v -60.1674 h -52.6464 z"
   id="path5444" /><path
   inkscape:connector-curvature="0"
   style="fill:#bdc3c7;fill-opacity:1;stroke-width:0.82259941"
   d="m 728.13078,2723.5167 h 105.2927 v -60.1674 h -105.2927 z"
   id="path5446" /><path
   id="path5448"
   d="m 833.42348,2723.5167 h 105.2927 v -60.1674 h -105.2927 z"
   style="fill:#ecf0f1;fill-opacity:1;stroke-width:0.82259941"
   inkscape:connector-curvature="0" /><path
   id="path5450"
   d="m 938.71618,2723.5167 h 105.29272 v -60.1674 H 938.71618 Z"
   style="fill:#e0e3e5;fill-opacity:1;stroke-width:0.82259941"
   inkscape:connector-curvature="0" /><path
   id="path5452"
   d="m 675.48438,2663.3493 h 105.2927 v -60.1674 h -105.2927 z"
   style="fill:#ecf0f1;fill-opacity:1;stroke-width:0.82259941"
   inkscape:connector-curvature="0" /><path
   id="path5454"
   d="m 780.77708,2663.3493 h 105.2928 v -60.1674 h -105.2928 z"
   style="fill:#e0e3e5;fill-opacity:1;stroke-width:0.82259941"
   inkscape:connector-curvature="0" /><path
   id="path5456"
   d="m 886.06988,2663.3493 h 105.2927 v -60.1674 h -105.2927 z"
   style="fill:#bdc3c7;fill-opacity:1;stroke-width:0.82259941"
   inkscape:connector-curvature="0" /><path
   id="path5458"
   d="m 675.48438,2603.1819 h 52.6464 v -60.1674 h -52.6464 z"
   style="fill:#e0e3e5;fill-opacity:1;stroke-width:0.82259941"
   inkscape:connector-curvature="0" /><path
   id="path5460"
   d="m 728.13078,2603.1819 h 105.2927 v -60.1674 h -105.2927 z"
   style="fill:#bdc3c7;fill-opacity:1;stroke-width:0.82259941"
   inkscape:connector-curvature="0" /><rect
   x="-355.75366"
   y="2793.2605"
   style="fill:#ecf0f1;fill-opacity:1;stroke-width:7.09177637"
   width="70.917763"
   height="99.284866"
   id="rect5462" /><rect
   x="-249.37701"
   y="2729.4346"
   style="fill:#ecf0f1;fill-opacity:1;stroke-width:7.09177637"
   width="70.917763"
   height="163.11086"
   id="rect5464" /><rect
   x="-143.00037"
   y="2672.7004"
   style="fill:#ecf0f1;fill-opacity:1;stroke-width:7.09177637"
   width="70.917763"
   height="219.84506"
   id="rect5466" /><rect
   x="-36.623737"
   y="2615.9661"
   style="fill:#ecf0f1;fill-opacity:1;stroke-width:7.09177637"
   width="70.917763"
   height="276.57928"
   id="rect5468" /><path
   inkscape:connector-curvature="0"
   style="fill:#bdc3c7;fill-opacity:1;stroke-width:7.09177637"
   d="M 41.385808,2899.6372 H -369.93721 c -3.91466,0 -7.09178,-3.17 -7.09178,-7.0917 0,-3.9218 3.17712,-7.0918 7.09178,-7.0918 H 41.385808 c 3.91467,0 7.09178,3.17 7.09178,7.0918 0,3.9217 -3.17711,7.0917 -7.09178,7.0917 z"
   id="path5470" /><path
   inkscape:connector-curvature="0"
   style="fill:#bdc3c7;fill-opacity:1;stroke-width:7.09177637"
   d="m -320.08202,2689.2242 c -2.45376,0 -4.83659,-1.2694 -6.14857,-3.5458 -1.95733,-3.397 -0.79428,-7.7301 2.59559,-9.6874 l 276.373608,-159.565 c 3.38987,-1.9644 7.72295,-0.7943 9.68737,2.5956 1.95733,3.397 0.79428,7.73 -2.59559,9.6874 l -276.373618,159.5649 c -1.11341,0.6454 -2.34028,0.9503 -3.53879,0.9503 z"
   id="path5472" /><path
   inkscape:connector-curvature="0"
   style="fill:#bdc3c7;fill-opacity:1;stroke-width:7.09177637"
   d="m -43.708412,2529.6593 c -0.22694,0 -0.45387,-0.014 -0.69499,-0.035 l -60.719788,-5.8862 c -3.89339,-0.3759 -6.75137,-3.8437 -6.36842,-7.7442 0.37587,-3.8934 3.80829,-6.7656 7.74422,-6.3684 l 60.719788,5.8861 c 3.89339,0.3759 6.75137,3.8438 6.36842,7.7443 -0.35459,3.6593 -3.43951,6.4038 -7.04923,6.4038 z"
   id="path5474" /><path
   inkscape:connector-curvature="0"
   style="fill:#bdc3c7;fill-opacity:1;stroke-width:7.09177637"
   d="m -68.983502,2585.1879 c -0.98576,0 -1.97861,-0.1986 -2.936,-0.6383 -3.56716,-1.624 -5.14153,-5.8223 -3.51752,-9.3895 l 25.26091,-55.5286 c 1.62402,-3.5672 5.82944,-5.1557 9.38951,-3.5175 3.56717,1.624 5.14154,5.8223 3.51752,9.3895 l -25.2609,55.5286 c -1.17724,2.6098 -3.75864,4.1558 -6.45352,4.1558 z"
   id="path5476" /><rect
   id="rect5478"
   x="-1266.6229"
   y="2802.978"
   style="fill:#bdc3c7;fill-opacity:1;stroke-width:1.0154928"
   width="30.464783"
   height="30.464783" /><path
   inkscape:connector-curvature="0"
   id="path5480"
   style="fill:#ecf0f1;fill-opacity:1;stroke-width:0.95756596"
   d="m -1198.2526,2716.7683 -93.7955,51.1618 12.4024,111.6244 h 186.7254 v -162.7862 l -105.3323,57.454 z m 38.3027,86.1809 h 28.727 v 28.727 h -28.727 z m -76.6053,28.727 h -28.727 v -28.727 h 28.727 z" /><polygon
   transform="matrix(1.0039074,0,0,1.0039074,-1446.2088,2502.0231)"
   id="polygon5482"
   style="fill:#bdc3c7;fill-opacity:1"
   points="76.685,328.37 92.185,328.37 106.685,328.37 106.685,298.37 92.185,298.37 76.685,298.37 " /><polygon
   transform="matrix(0.95756596,0,0,0.95756596,-1442.1039,2517.2403)"
   id="polygon5484"
   style="fill:#ecf0f1;fill-opacity:1"
   points="76.685,298.37 92.185,298.37 92.185,138.372 38.351,138.372 11.685,378.37 92.185,378.37 92.185,328.37 76.685,328.37 " /><polygon
   transform="matrix(0.95756596,0,0,0.95756596,-1442.6551,2517.2403)"
   id="polygon5486"
   style="fill:#ecf0f1;fill-opacity:1"
   points="92.185,328.37 92.185,378.37 171.685,378.37 158.733,261.799 145.019,138.372 92.185,138.372 92.185,298.37 106.685,298.37 106.685,328.37 " /><rect
   id="rect5488"
   x="-1160.2975"
   y="2802.2542"
   style="fill:#bdc3c7;fill-opacity:1;stroke-width:0.98073667"
   width="29.4221"
   height="29.4221" /><polygon
   transform="matrix(0.95756596,0,0,0.95756596,-1442.6551,2518.283)"
   id="polygon5490"
   style="fill:#ecf0f1;fill-opacity:1"
   points="26.685,108.372 26.685,138.372 38.351,138.372 92.185,138.372 145.019,138.372 156.685,138.372 156.685,108.372 " /><polygon
   transform="matrix(6.7195084,0,0,6.7195084,-905.70704,2492.4927)"
   id="polygon5492"
   points="52,23.039 29,1.682 6,23.039 6,27.682 6,57.682 52,57.682 52,27.682 "
   style="fill:#ecf0f1;fill-opacity:1" /><path
   id="path5494"
   d="m -663.80474,2880.0874 h -94.07312 v -114.2317 c 0,-25.9776 21.05894,-47.0365 47.03656,-47.0365 v 0 c 25.97762,0 47.03656,21.0589 47.03656,47.0365 z"
   style="fill:#bdc3c7;fill-opacity:1;stroke-width:6.71950817"
   inkscape:connector-curvature="0" /><polyline
   transform="matrix(6.7195084,0,0,6.7195084,-905.70704,2492.4927)"
   id="polyline5496"
   points="1,27.682 29,1.682   57,27.682 "
   style="fill:none;stroke:#bdc3c7;stroke-width:2;stroke-linecap:round;stroke-miterlimit:10;stroke-opacity:1" /><g
   id="g5564"
   transform="matrix(1.3768574,0,0,1.3768574,1679.7475,-2046.9044)"><path
     style="fill:#ecf0f1;fill-opacity:1;stroke-width:4.56580353"
     d="m -1575.5318,1630.7457 v 150.3885 h -106.0591 v -27.2853 h -96.27 v 27.2853 h -104.7349 v -150.3885 z"
     id="path5558"
     inkscape:connector-curvature="0" /><path
     style="fill:#bdc3c7;fill-opacity:1;stroke-width:4.56580353"
     d="m -1723.7222,1482.4885 c 1.2374,-0.21 3.2489,0.7179 5.1392,0.042 2.6116,-0.9451 5.447,-2.0318 8.7115,-3.2143 3.2143,-1.146 6.3373,-2.082 9.3645,-2.744 2.9769,-0.7169 5.1045,-1.041 6.5519,-1.041 2.7167,0 6.2643,0.4611 10.3735,1.3834 4.164,1.041 8.5837,2.1779 13.0993,3.4654 4.6617,1.4794 8.8622,2.566 12.9075,3.534 3.881,0.9086 7.2825,1.3012 9.9535,1.3012 4.2827,0 8.8211,-0.6027 13.9257,-1.9633 v -54.8033 c -4.2051,1.7898 -8.7709,2.776 -13.9257,2.776 -2.671,0 -6.0725,-0.4383 -9.9535,-1.4519 -4.0453,-0.7899 -8.2504,-2.0546 -12.9075,-3.4381 -4.5156,-1.4199 -8.7937,-2.4838 -12.7203,-3.3832 -3.9449,-0.968 -7.2323,-1.452 -10.022,-1.452 -9.3142,0 -20.0324,0.8084 -30.5976,5.0135"
     id="path5560"
     inkscape:connector-curvature="0" /><path
     style="fill:#ecf0f1;fill-opacity:1;stroke-width:4.56580353"
     d="m -1723.0849,1417.9884 h -13.0034 v 116.0125 h -0.7443 c -19.6831,1.9131 -36.919,9.0769 -51.3744,21.5278 -14.6243,12.7523 -24.1394,28.5819 -28.623,47.5665 0,0 -14.0079,-2.3514 -14.0079,13.3002 h 204.4704 c 0.01,-13.9028 -15.3411,-13.3002 -15.3411,-13.3002 -4.1868,-18.9846 -13.6381,-34.8142 -28.5865,-47.5665 -14.4416,-12.4509 -31.5588,-19.6147 -51.3836,-21.5278 h -1.4291"
     id="path5562"
     inkscape:connector-curvature="0" /></g><g
   id="g5580"
   transform="matrix(1.4793143,0,0,1.4793143,542.50463,-2511.1151)"><rect
     height="30.464783"
     width="30.464783"
     style="fill:#bdc3c7;fill-opacity:1;stroke-width:1.0154928"
     y="1757.0121"
     x="-1258.7585"
     id="rect5566" /><path
     d="m -1190.3881,1670.8022 -93.7955,51.1618 12.4023,111.6244 h 186.7254 v -162.7862 l -105.3322,57.454 z m 38.3026,86.1809 h 28.727 v 28.727 h -28.727 z m -76.6053,28.727 h -28.727 v -28.727 h 28.727 z"
     style="fill:#ecf0f1;fill-opacity:1;stroke-width:0.95756596"
     id="path5568"
     inkscape:connector-curvature="0" /><polygon
     points="106.685,298.37 92.185,298.37 76.685,298.37 76.685,328.37 92.185,328.37 106.685,328.37 "
     style="fill:#bdc3c7;fill-opacity:1"
     id="polygon5570"
     transform="matrix(1.0039074,0,0,1.0039074,-1438.3444,1456.057)" /><polygon
     points="38.351,138.372 11.685,378.37 92.185,378.37 92.185,328.37 76.685,328.37 76.685,298.37 92.185,298.37 92.185,138.372 "
     style="fill:#ecf0f1;fill-opacity:1"
     id="polygon5572"
     transform="matrix(0.95756596,0,0,0.95756596,-1434.2395,1471.2742)" /><polygon
     points="158.733,261.799 145.019,138.372 92.185,138.372 92.185,298.37 106.685,298.37 106.685,328.37 92.185,328.37 92.185,378.37 171.685,378.37 "
     style="fill:#ecf0f1;fill-opacity:1"
     id="polygon5574"
     transform="matrix(0.95756596,0,0,0.95756596,-1434.7907,1471.2742)" /><rect
     height="29.4221"
     width="29.4221"
     style="fill:#bdc3c7;fill-opacity:1;stroke-width:0.98073667"
     y="1756.288"
     x="-1152.4331"
     id="rect5576" /><polygon
     points="92.185,138.372 145.019,138.372 156.685,138.372 156.685,108.372 26.685,108.372 26.685,138.372 38.351,138.372 "
     style="fill:#ecf0f1;fill-opacity:1"
     id="polygon5578"
     transform="matrix(0.95756596,0,0,0.95756596,-1434.7907,1472.3169)" /></g><g
   id="g5588"
   transform="matrix(1.2824718,0,0,1.2824718,50.474881,-1821.6707)"><polygon
     style="fill:#ecf0f1;fill-opacity:1"
     points="6,27.682 6,57.682 52,57.682 52,27.682 52,23.039 29,1.682 6,23.039 "
     id="polygon5582"
     transform="matrix(6.7195084,0,0,6.7195084,-897.84263,1446.5266)" /><path
     inkscape:connector-curvature="0"
     style="fill:#bdc3c7;fill-opacity:1;stroke-width:6.71950817"
     d="m -655.94033,1834.1213 h -94.07312 v -114.2317 c 0,-25.9776 21.05894,-47.0365 47.03656,-47.0365 v 0 c 25.97762,0 47.03656,21.0589 47.03656,47.0365 z"
     id="path5584" /><polyline
     style="fill:none;stroke:#bdc3c7;stroke-width:2;stroke-linecap:round;stroke-miterlimit:10;stroke-opacity:1"
     points="1,27.682 29,1.682   57,27.682 "
     id="polyline5586"
     transform="matrix(6.7195084,0,0,6.7195084,-897.84263,1446.5266)" /></g><g
   id="g5606"
   transform="matrix(1.17507,0,0,1.17507,-467.08379,-1776.8799)"><rect
     id="rect5590"
     height="99.284866"
     width="70.917763"
     style="fill:#ecf0f1;fill-opacity:1;stroke-width:7.09177637"
     y="1747.2944"
     x="-347.88925" /><rect
     id="rect5592"
     height="163.11086"
     width="70.917763"
     style="fill:#ecf0f1;fill-opacity:1;stroke-width:7.09177637"
     y="1683.4685"
     x="-241.5126" /><rect
     id="rect5594"
     height="219.84506"
     width="70.917763"
     style="fill:#ecf0f1;fill-opacity:1;stroke-width:7.09177637"
     y="1626.7343"
     x="-135.13596" /><rect
     id="rect5596"
     height="276.57928"
     width="70.917763"
     style="fill:#ecf0f1;fill-opacity:1;stroke-width:7.09177637"
     y="1570.0001"
     x="-28.759325" /><path
     id="path5598"
     d="M 49.250218,1853.6711 H -362.0728 c -3.91466,0 -7.09178,-3.17 -7.09178,-7.0917 0,-3.9218 3.17712,-7.0918 7.09178,-7.0918 H 49.250218 c 3.91467,0 7.09178,3.17 7.09178,7.0918 0,3.9217 -3.17711,7.0917 -7.09178,7.0917 z"
     style="fill:#bdc3c7;fill-opacity:1;stroke-width:7.09177637"
     inkscape:connector-curvature="0" /><path
     id="path5600"
     d="m -312.21762,1643.2581 c -2.45375,0 -4.83659,-1.2694 -6.14857,-3.5458 -1.95733,-3.397 -0.79427,-7.7301 2.59559,-9.6874 l 276.373618,-159.565 c 3.38987,-1.9644 7.72295,-0.7943 9.68737,2.5956 1.95733,3.397 0.79428,7.73 -2.59559,9.6874 l -276.373618,159.5649 c -1.11341,0.6454 -2.34029,0.9503 -3.5388,0.9503 z"
     style="fill:#bdc3c7;fill-opacity:1;stroke-width:7.09177637"
     inkscape:connector-curvature="0" /><path
     id="path5602"
     d="m -35.844002,1483.6932 c -0.22694,0 -0.45387,-0.014 -0.69499,-0.035 l -60.71979,-5.8862 c -3.893388,-0.3759 -6.751368,-3.8437 -6.368418,-7.7442 0.37587,-3.8934 3.808288,-6.7656 7.744218,-6.3684 l 60.71979,5.8861 c 3.89339,0.3759 6.75137,3.8438 6.36842,7.7443 -0.35459,3.6593 -3.43951,6.4038 -7.04923,6.4038 z"
     style="fill:#bdc3c7;fill-opacity:1;stroke-width:7.09177637"
     inkscape:connector-curvature="0" /><path
     id="path5604"
     d="m -61.119092,1539.2218 c -0.98576,0 -1.97861,-0.1986 -2.936,-0.6383 -3.56716,-1.624 -5.14153,-5.8223 -3.51752,-9.3895 l 25.26091,-55.5286 c 1.62402,-3.5672 5.82944,-5.1557 9.38951,-3.5175 3.56717,1.624 5.14154,5.8223 3.51752,9.3895 l -25.2609,55.5286 c -1.17724,2.6098 -3.75864,4.1558 -6.45352,4.1558 z"
     style="fill:#bdc3c7;fill-opacity:1;stroke-width:7.09177637"
     inkscape:connector-curvature="0" /></g><g
   id="g5616"
   transform="matrix(1.2456924,0,0,1.2456924,-1321.9376,-1815.4438)"><path
     style="fill:#ecf0f1;fill-opacity:1;stroke-width:6.92040014"
     d="m 382.45834,1448.4489 c 0,0 -46.13831,55.3632 -152.2488,55.3632 v 132.0758 c 0,68.9687 29.95149,135.4807 84.17975,178.0965 19.19026,15.0865 41.82688,28.0622 68.06905,35.8477 26.24214,-7.7855 48.87187,-20.7612 68.06905,-35.8477 54.22826,-42.6158 84.17969,-109.1278 84.17969,-178.0965 v -132.0758 c -106.11043,0 -152.24874,-55.3632 -152.24874,-55.3632 z"
     id="path5608"
     inkscape:connector-curvature="0" /><path
     style="fill:#bdc3c7;fill-opacity:1;stroke-width:6.92040014"
     d="m 230.20954,1503.8121 v 132.0758 c 0,68.9687 29.95149,135.4807 84.17975,178.0965 19.19026,15.0865 41.82688,28.0622 68.06905,35.8477 v -401.3832 c 0,0 -46.13831,55.3632 -152.2488,55.3632 z"
     id="path5610"
     inkscape:connector-curvature="0" /><path
     style="fill:#bdc3c7;fill-opacity:1;stroke-width:6.92040014"
     d="m 382.45834,1805.9637 c -14.69202,-5.7647 -28.91344,-14.0138 -42.40822,-24.6228 -42.78191,-33.6193 -68.3182,-87.9929 -68.3182,-145.453 v -93.1278 c 51.14869,-6.5259 87.46694,-24.3183 110.72642,-40.1245 23.25945,15.8062 59.57773,33.5986 110.72631,40.1245 v 93.1278 c 0,57.4601 -25.53621,111.8337 -68.31118,145.453 -13.50172,10.609 -27.72314,18.8581 -42.41513,24.6228 z"
     id="path5612"
     inkscape:connector-curvature="0" /><path
     style="fill:#ecf0f1;fill-opacity:1;stroke-width:6.92040014"
     d="m 271.73192,1542.7601 v 93.1278 c 0,57.4601 25.53629,111.8337 68.3182,145.453 13.49478,10.609 27.7162,18.8581 42.40822,24.6228 v -303.3212 c -23.25948,15.7993 -59.57773,33.5986 -110.72642,40.1176 z"
     id="path5614"
     inkscape:connector-curvature="0" /></g><g
   id="g5664"
   transform="matrix(1.1871665,0,0,1.1871665,-811.24878,-1741.5318)"><path
     inkscape:connector-curvature="0"
     style="fill:#ecf0f1;fill-opacity:1;stroke-width:0.82259941"
     d="m 683.34878,1858.0527 h 105.2927 v -60.1674 h -105.2927 z"
     id="path5618" /><path
     inkscape:connector-curvature="0"
     style="fill:#e0e3e5;fill-opacity:1;stroke-width:0.82259941"
     d="m 788.64148,1858.0527 h 105.2928 v -60.1674 h -105.2928 z"
     id="path5620" /><path
     inkscape:connector-curvature="0"
     style="fill:#bdc3c7;fill-opacity:1;stroke-width:0.82259941"
     d="m 893.93428,1858.0527 h 105.2927 v -60.1674 h -105.2927 z"
     id="path5622" /><path
     inkscape:connector-curvature="0"
     style="fill:#ecf0f1;fill-opacity:1;stroke-width:0.82259941"
     d="m 999.22698,1858.0527 h 105.29272 v -60.1674 H 999.22698 Z"
     id="path5624" /><path
     inkscape:connector-curvature="0"
     style="fill:#e0e3e5;fill-opacity:1;stroke-width:0.82259941"
     d="m 683.34878,1797.8853 h 52.6464 v -60.1673 h -52.6464 z"
     id="path5626" /><path
     id="path5628"
     d="m 1051.8733,1797.8853 h 52.6464 v -60.1673 h -52.6464 z"
     style="fill:#bdc3c7;fill-opacity:1;stroke-width:0.82259941"
     inkscape:connector-curvature="0" /><path
     id="path5630"
     d="m 735.99518,1797.8853 h 105.2927 v -60.1673 h -105.2927 z"
     style="fill:#bdc3c7;fill-opacity:1;stroke-width:0.82259941"
     inkscape:connector-curvature="0" /><path
     inkscape:connector-curvature="0"
     style="fill:#ecf0f1;fill-opacity:1;stroke-width:0.82259941"
     d="m 841.28788,1797.8853 h 105.2927 v -60.1673 h -105.2927 z"
     id="path5632" /><path
     inkscape:connector-curvature="0"
     style="fill:#e0e3e5;fill-opacity:1;stroke-width:0.82259941"
     d="M 946.58058,1797.8853 H 1051.8733 V 1737.718 H 946.58058 Z"
     id="path5634" /><path
     inkscape:connector-curvature="0"
     style="fill:#ecf0f1;fill-opacity:1;stroke-width:0.82259941"
     d="m 683.34878,1737.718 h 105.2927 v -60.1674 h -105.2927 z"
     id="path5636" /><path
     inkscape:connector-curvature="0"
     style="fill:#e0e3e5;fill-opacity:1;stroke-width:0.82259941"
     d="m 788.64148,1737.718 h 105.2928 v -60.1674 h -105.2928 z"
     id="path5638" /><path
     inkscape:connector-curvature="0"
     style="fill:#bdc3c7;fill-opacity:1;stroke-width:0.82259941"
     d="m 893.93428,1737.718 h 105.2927 v -60.1674 h -105.2927 z"
     id="path5640" /><path
     inkscape:connector-curvature="0"
     style="fill:#ecf0f1;fill-opacity:1;stroke-width:0.82259941"
     d="m 999.22698,1737.718 h 105.29272 v -60.1674 H 999.22698 Z"
     id="path5642" /><path
     inkscape:connector-curvature="0"
     style="fill:#e0e3e5;fill-opacity:1;stroke-width:0.82259941"
     d="m 683.34878,1677.5506 h 52.6464 v -60.1674 h -52.6464 z"
     id="path5644" /><path
     id="path5646"
     d="m 1051.8733,1677.5506 h 52.6464 v -60.1674 h -52.6464 z"
     style="fill:#bdc3c7;fill-opacity:1;stroke-width:0.82259941"
     inkscape:connector-curvature="0" /><path
     id="path5648"
     d="m 735.99518,1677.5506 h 105.2927 v -60.1674 h -105.2927 z"
     style="fill:#bdc3c7;fill-opacity:1;stroke-width:0.82259941"
     inkscape:connector-curvature="0" /><path
     inkscape:connector-curvature="0"
     style="fill:#ecf0f1;fill-opacity:1;stroke-width:0.82259941"
     d="m 841.28788,1677.5506 h 105.2927 v -60.1674 h -105.2927 z"
     id="path5650" /><path
     inkscape:connector-curvature="0"
     style="fill:#e0e3e5;fill-opacity:1;stroke-width:0.82259941"
     d="m 946.58058,1677.5506 h 105.29272 v -60.1674 H 946.58058 Z"
     id="path5652" /><path
     inkscape:connector-curvature="0"
     style="fill:#ecf0f1;fill-opacity:1;stroke-width:0.82259941"
     d="m 683.34878,1617.3832 h 105.2927 v -60.1674 h -105.2927 z"
     id="path5654" /><path
     inkscape:connector-curvature="0"
     style="fill:#e0e3e5;fill-opacity:1;stroke-width:0.82259941"
     d="m 788.64148,1617.3832 h 105.2928 v -60.1674 h -105.2928 z"
     id="path5656" /><path
     inkscape:connector-curvature="0"
     style="fill:#bdc3c7;fill-opacity:1;stroke-width:0.82259941"
     d="m 893.93428,1617.3832 h 105.2927 v -60.1674 h -105.2927 z"
     id="path5658" /><path
     inkscape:connector-curvature="0"
     style="fill:#e0e3e5;fill-opacity:1;stroke-width:0.82259941"
     d="m 683.34878,1557.2158 h 52.6464 v -60.1674 h -52.6464 z"
     id="path5660" /><path
     inkscape:connector-curvature="0"
     style="fill:#bdc3c7;fill-opacity:1;stroke-width:0.82259941"
     d="m 735.99518,1557.2158 h 105.2927 v -60.1674 h -105.2927 z"
     id="path5662" /></g></svg>