<?xml version="1.0" encoding="iso-8859-1"?>
<!-- Generator: Adobe Illustrator 19.0.0, SVG Export Plug-In . SVG Version: 6.00 Build 0)  -->
<svg version="1.1" id="Capa_1" xmlns="http://www.w3.org/2000/svg" xmlns:xlink="http://www.w3.org/1999/xlink" x="0px" y="0px"
	 viewBox="0 0 512 512" style="enable-background:new 0 0 512 512;" xml:space="preserve">
<polygon style="fill:#242424;" points="270.996,89.045 334.858,89.045 363.051,49.412 338.609,32.026 319.385,59.05 270.996,59.05 
	270.996,29.019 255.999,29.019 245.993,134.085 270.996,134.085 "/>
<g>
	<polygon style="fill:#404040;" points="241.002,29.019 241.002,59.05 192.613,59.05 173.389,32.026 148.947,49.412 177.14,89.045 
		241.002,89.045 241.002,134.085 255.999,134.085 255.999,29.019 	"/>
	
		<rect x="128.315" y="382.748" transform="matrix(-0.7071 -0.7071 0.7071 -0.7071 -63.1181 844.353)" style="fill:#404040;" width="29.995" height="105.001"/>
	
		<rect x="103.798" y="296.946" transform="matrix(-0.7071 -0.7071 0.7071 -0.7071 -44.2965 680.5348)" style="fill:#404040;" width="29.995" height="104.991"/>
</g>
<g>
	
		<rect x="315.437" y="420.256" transform="matrix(-0.7071 -0.7071 0.7071 -0.7071 320.3387 1003.1943)" style="fill:#242424;" width="105.001" height="29.995"/>
	
		<rect x="340.71" y="334.442" transform="matrix(-0.7071 -0.7071 0.7071 -0.7071 424.1533 874.5684)" style="fill:#242424;" width="104.991" height="29.995"/>
</g>
<polygon style="fill:#404040;" points="21.209,303.383 0,282.174 78.635,203.537 186.192,203.537 186.192,233.532 91.06,233.532 "/>
<polygon style="fill:#242424;" points="490.791,303.385 420.94,233.535 325.808,233.535 325.808,203.54 433.363,203.54 512,282.176 
	"/>
<path style="fill:#FF8E00;" d="M337.602,209.273l-4.503-5.733l-97.112-0.001l20.013,254.663c31.513,0,60.878-15.704,82.684-44.221
	c20.892-27.321,32.398-63.424,32.398-101.657C371.081,273.354,359.191,236.756,337.602,209.273z"/>
<path style="fill:#FFCD00;" d="M178.901,203.537l-4.503,5.733c-21.59,27.484-33.48,64.083-33.48,103.053
	c0,38.232,11.506,74.335,32.398,101.657c21.806,28.516,51.171,44.221,82.684,44.221l0,0V203.538L178.901,203.537z"/>
<path style="fill:#404040;" d="M342.063,205.151c0-47.456-38.608-86.063-86.063-86.063l-20.013,63.292L256,291.215
	C303.455,291.215,342.063,252.607,342.063,205.151z"/>
<path style="fill:#606060;" d="M255.999,119.088c-47.456,0-86.063,38.607-86.063,86.063s38.607,86.064,86.063,86.064l0,0V119.088
	L255.999,119.088z"/>
<g>
</g>
<g>
</g>
<g>
</g>
<g>
</g>
<g>
</g>
<g>
</g>
<g>
</g>
<g>
</g>
<g>
</g>
<g>
</g>
<g>
</g>
<g>
</g>
<g>
</g>
<g>
</g>
<g>
</g>
</svg>
