<?xml version="1.0" encoding="iso-8859-1"?>
<!-- Generator: Adobe Illustrator 19.0.0, SVG Export Plug-In . SVG Version: 6.00 Build 0)  -->
<svg version="1.1" id="Capa_1" xmlns="http://www.w3.org/2000/svg" xmlns:xlink="http://www.w3.org/1999/xlink" x="0px" y="0px"
	 viewBox="0 0 511.794 511.794" style="enable-background:new 0 0 511.794 511.794;" xml:space="preserve">
<g>
	<path style="fill:#CBB292;" d="M7.638,504.156L7.638,504.156c10.852,10.454,28.121,10.137,38.582-0.708l333.965-333.965
		l-37.874-37.874L8.345,465.574C-2.499,476.035-2.816,493.304,7.638,504.156L7.638,504.156z"/>
	<path style="fill:#A5A5A4;" d="M372.178,76.492C287.15,6.74,191.202-18.635,135.337,14.252
		c57.064,4.671,130.54,40.273,199.345,99.736l63.124,63.124c59.463,68.805,95.064,142.281,99.736,199.345
		c32.888-55.865,7.512-151.813-62.24-236.841L372.178,76.492z"/>
	<path style="fill:#7F6E5D;" d="M329.574,119.124l50.492-50.492c6.974-6.974,18.281-6.974,25.255,0l37.871,37.871
		c6.974,6.974,6.974,18.281,0,25.255L392.7,182.251c-6.974,6.974-18.281,6.974-25.255,0l-37.871-37.871
		C322.6,137.406,322.6,126.099,329.574,119.124z"/>
</g>
<g>
</g>
<g>
</g>
<g>
</g>
<g>
</g>
<g>
</g>
<g>
</g>
<g>
</g>
<g>
</g>
<g>
</g>
<g>
</g>
<g>
</g>
<g>
</g>
<g>
</g>
<g>
</g>
<g>
</g>
</svg>
