<?xml version="1.0" encoding="iso-8859-1"?>
<!-- Generator: Adobe Illustrator 19.0.0, SVG Export Plug-In . SVG Version: 6.00 Build 0)  -->
<svg version="1.1" id="Capa_1" xmlns="http://www.w3.org/2000/svg" xmlns:xlink="http://www.w3.org/1999/xlink" x="0px" y="0px"
	 viewBox="0 0 512 512" style="enable-background:new 0 0 512 512;" xml:space="preserve">
<polygon style="fill:#BD2B0F;" points="160.49,154.982 160.49,0 130.49,0 130.49,166.748 172.335,211.888 78.396,188.155 
	71.049,217.241 182.843,245.486 110.31,297.656 110.31,512 140.31,512 140.31,313.032 226.531,251.017 228.773,228.643 "/>
<polygon style="fill:#782E1C;" points="440.951,217.241 433.604,188.155 339.665,211.888 381.51,166.748 381.51,0 351.51,0 
	351.51,154.982 283.227,228.643 285.469,251.017 371.69,313.032 371.69,512 401.69,512 401.69,297.656 329.157,245.486 "/>
<path style="fill:#DB5925;" d="M309.228,198.707c0-29.35-23.878-53.228-53.228-53.228l-20.016,118.368h73.244V198.707z"/>
<path style="fill:#DB805C;" d="M202.772,198.707v65.141H256V145.479C226.65,145.479,202.772,169.357,202.772,198.707z"/>
<path style="fill:#BD2B0F;" d="M256,221.934l-20.016,82.28L256,386.493c45.369,0,82.279-36.91,82.279-82.279
	S301.369,221.934,256,221.934z"/>
<path style="fill:#DB5925;" d="M173.721,304.214c0,45.369,36.91,82.279,82.279,82.279V221.934
	C210.631,221.934,173.721,258.844,173.721,304.214z"/>
<g>
</g>
<g>
</g>
<g>
</g>
<g>
</g>
<g>
</g>
<g>
</g>
<g>
</g>
<g>
</g>
<g>
</g>
<g>
</g>
<g>
</g>
<g>
</g>
<g>
</g>
<g>
</g>
<g>
</g>
</svg>
