<?xml version="1.0" encoding="iso-8859-1"?>
<!-- Generator: Adobe Illustrator 19.0.0, SVG Export Plug-In . SVG Version: 6.00 Build 0)  -->
<svg version="1.1" id="Capa_1" xmlns="http://www.w3.org/2000/svg" xmlns:xlink="http://www.w3.org/1999/xlink" x="0px" y="0px"
	 viewBox="0 0 512 512" style="enable-background:new 0 0 512 512;" xml:space="preserve">
<path style="fill:#F3D55B;" d="M437.734,287.743l-40.524,41.118l9.632,57.492c1.836,10.96,2.842,22.043,3.009,33.155L411.238,512
	l-79.06-29.891c-11.511-4.352-22.638-9.66-33.265-15.867l-42.093-24.587l-42.096,24.589c-10.625,6.206-21.751,11.513-33.261,15.865
	L102.4,512l1.386-92.44c0.167-11.146,1.179-22.263,3.025-33.256l9.412-56.02l-41.931-42.521
	c-8.282-8.398-15.877-17.447-22.713-27.06L0,188.171l79.744-25.755c12.078-3.901,24.47-6.752,37.038-8.523l55.66-7.842
	l18.132-40.556c4.698-10.507,10.21-20.631,16.487-30.279L256,0l48.938,75.216c6.277,9.647,11.79,19.771,16.487,30.279l18.132,40.556
	l55.66,7.842c12.568,1.771,24.96,4.622,37.038,8.523L512,188.171l-51.599,72.559C453.578,270.325,445.998,279.358,437.734,287.743z"
	/>
<g>
	<path style="fill:#B19046;" d="M273.655,132.493c0,19.457-7.904,35.231-17.655,35.231s-17.655-15.773-17.655-35.231
		c1.893-16.68,6.111-33.014,12.53-48.526c2.236-6.026,8.014-6.026,10.25,0C267.544,99.479,271.762,115.813,273.655,132.493
		L273.655,132.493z"/>
	<path style="fill:#B19046;" d="M170.074,359.882c8.016-14.825,21.467-23.083,30.044-18.445c8.577,4.638,9.032,20.415,1.016,35.24
		c-8.636,11.909-19.104,22.376-31.013,31.012c-1.654,1.733-4.263,2.145-6.37,1.006c-2.107-1.139-3.191-3.548-2.646-5.881
		C161.811,388.119,164.838,373.629,170.074,359.882L170.074,359.882z"/>
	<path style="fill:#B19046;" d="M333.775,361.134c-8.39-15.516-22.144-24.335-30.721-19.697s-8.729,20.976-0.339,36.492
		c8.925,12.471,19.697,23.51,31.946,32.736c1.615,1.85,4.296,2.334,6.457,1.166c2.16-1.168,3.223-3.677,2.559-6.041
		C342.663,390.488,339.324,375.43,333.775,361.134L333.775,361.134z"/>
	<path style="fill:#B19046;" d="M376.23,213.101c-19.14,5.625-32.427,17.769-29.678,27.124c2.749,9.355,20.494,12.379,39.634,6.754
		c15.853-6.626,30.725-15.391,44.201-26.05c5.297-3.887,3.668-9.431-2.89-9.834C410.396,209.421,393.147,210.096,376.23,213.101
		L376.23,213.101z"/>
	<path style="fill:#B19046;" d="M136.879,212.911c19.496,5.729,33.071,17.958,30.322,27.313
		c-2.749,9.355-20.782,12.294-40.278,6.565c-16.142-6.707-31.308-15.556-45.088-26.311c-5.407-3.919-3.778-9.463,2.89-9.834
		C102.133,209.055,119.675,209.818,136.879,212.911L136.879,212.911z"/>
</g>
<polygon style="fill:#F9EAB0;" points="220.134,212.365 253.158,240.102 286.658,216.055 272.331,255.426 306.626,281.476 
	264.748,278.078 252.442,318.226 240.887,276.754 198.991,275.518 233.728,253.29 "/>
<g>
</g>
<g>
</g>
<g>
</g>
<g>
</g>
<g>
</g>
<g>
</g>
<g>
</g>
<g>
</g>
<g>
</g>
<g>
</g>
<g>
</g>
<g>
</g>
<g>
</g>
<g>
</g>
<g>
</g>
</svg>
